# xmcd
#
# Track frame offsets:
#	150
#	15612
#	33203
#	54543
#	75078
#	90023
#	111287
#	133472
#	156780
#	176911
#	199686
#	224166
#	244180
#	273004
#
# Disc length: 3731 seconds
#
# Revision: 1
# Processed by: cddbd v1.5.2PL0 Copyright (c) Steve Scherf et al.
# Submitted via: audiograbber 1.83.01
#
DISCID=b70e910e
DTITLE=Albert Sandberg - En Lycklig Europé?
DYEAR=2004
DGENRE=Blues
TTITLE0=En lycklig europé?
TTITLE1=Snurrar
TTITLE2=Dockhussåpans bubblor
TTITLE3=Reklampelarland
TTITLE4=Bara vara
TTITLE5=Sven
TTITLE6=Rött igår
TTITLE7=Fönstrets imma
TTITLE8=Fadime
TTITLE9=Vilse i pannkakan
TTITLE10=Tomten
TTITLE11=Popart
TTITLE12=Två kvinnor
TTITLE13=Flugans ben
EXTD=
EXTT0=
EXTT1=
EXTT2=
EXTT3=
EXTT4=
EXTT5=
EXTT6=
EXTT7=
EXTT8=
EXTT9=
EXTT10=
EXTT11=
EXTT12=
EXTT13=
PLAYORDER=
